<?xml version="1.0" encoding="UTF-8" standalone="no"?>
<svg
   xmlns:dc="http://purl.org/dc/elements/1.1/"
   xmlns:cc="http://creativecommons.org/ns#"
   xmlns:rdf="http://www.w3.org/1999/02/22-rdf-syntax-ns#"
   xmlns:svg="http://www.w3.org/2000/svg"
   xmlns="http://www.w3.org/2000/svg"
   xmlns:sodipodi="http://sodipodi.sourceforge.net/DTD/sodipodi-0.dtd"
   xmlns:inkscape="http://www.inkscape.org/namespaces/inkscape"
   width="73.735809mm"
   height="7.7530189mm"
   viewBox="0 0 73.735809 7.7530189"
   version="1.1"
   id="svg8"
   inkscape:version="1.0 (4035a4fb49, 2020-05-01)"
   sodipodi:docname="ornament_lines.svg">
  <defs
     id="defs2" />
  <sodipodi:namedview
     fit-margin-bottom="0"
     fit-margin-right="0"
     fit-margin-left="0"
     fit-margin-top="0"
     id="base"
     pagecolor="#ffffff"
     bordercolor="#666666"
     borderopacity="1.0"
     inkscape:pageopacity="0.0"
     inkscape:pageshadow="2"
     inkscape:zoom="3.894253"
     inkscape:cx="103.89892"
     inkscape:cy="19.24551"
     inkscape:document-units="mm"
     inkscape:current-layer="layer1"
     inkscape:document-rotation="0"
     showgrid="false"
     inkscape:window-width="1920"
     inkscape:window-height="1017"
     inkscape:window-x="1912"
     inkscape:window-y="-8"
     inkscape:window-maximized="1"
     inkscape:snap-bbox="false"
     inkscape:snap-object-midpoints="true"
     inkscape:snap-center="true"
     inkscape:snap-intersection-paths="true"
     inkscape:object-paths="true" />
  <metadata
     id="metadata5">
    <rdf:RDF>
      <cc:Work
         rdf:about="">
        <dc:format>image/svg+xml</dc:format>
        <dc:type
           rdf:resource="http://purl.org/dc/dcmitype/StillImage" />
        <dc:title></dc:title>
      </cc:Work>
    </rdf:RDF>
  </metadata>
  <g
     inkscape:label="Layer 1"
     id="layer1">
    <path
       sodipodi:insensitive="true"
       id="path43-59-5-5-2-4"
       style="display:none;fill:none;stroke:#000000;stroke-width:0.694404;stroke-linecap:round;stroke-linejoin:miter;stroke-miterlimit:4;stroke-dasharray:none;stroke-opacity:1"
       inkscape:label="base5x3"
       d="m 153.01254,71.260384 c -3.88311,0 -1.98085,-4.805592 -5.86396,-4.805592 -3.88311,0 -1.98085,4.805592 -5.86396,4.805592 m 0,0 c -3.88311,0 -1.98086,-4.805593 -5.86396,-4.805593 -3.88311,0 -1.98085,4.805593 -5.86396,4.805593 m 0,0 c -3.88311,0 -1.98085,-4.805593 -5.86396,-4.805593 -3.88311,0 -1.98085,4.805593 -5.86396,4.805593 m 0,0 c -3.88311,0 -1.98085,-4.805593 -5.86396,-4.805593 -3.88311,0 -1.98085,4.805593 -5.86396,4.805593 m 0,0 c -3.88311,0 -1.98085,-4.805592 -5.86396,-4.805592 -3.883113,0 -1.980853,4.805592 -5.863961,4.805592 m 62.567601,4.5e-4 c -3.88311,0 -1.98085,-4.805592 -5.86396,-4.805592 -3.88311,0 -1.98086,4.805592 -5.86396,4.805592 m 0,0 c -3.88311,0 -1.98086,-4.805593 -5.86396,-4.805593 -3.88311,0 -1.98086,4.805593 -5.86396,4.805593 m 0,0 c -3.88311,0 -1.98085,-4.805593 -5.86396,-4.805593 -3.88311,0 -1.98085,4.805593 -5.86396,4.805593 m 0,0 c -3.88311,0 -1.98085,-4.805593 -5.86396,-4.805593 -3.88311,0 -1.98085,4.805593 -5.86396,4.805593 m 0,0 c -3.88311,0 -1.98085,-4.805592 -5.86396,-4.805592 -3.88311,0 -1.98085,4.805592 -5.863963,4.805592 m 50.783543,0 c -3.88311,0 -1.98085,-4.805592 -5.86396,-4.805592 -3.88311,0 -1.98085,4.805592 -5.86396,4.805592 m 0,0 c -3.88311,0 -1.98085,-4.805593 -5.86396,-4.805593 -3.88311,0 -1.98085,4.805593 -5.86396,4.805593 m 0,0 c -3.88311,0 -1.98085,-4.805593 -5.86396,-4.805593 -3.88311,0 -1.98085,4.805593 -5.86396,4.805593 m 0,0 c -3.88311,0 -1.98085,-4.805593 -5.86396,-4.805593 -3.88311,0 -1.98085,4.805593 -5.86396,4.805593 m 0,0 c -3.883113,0 -1.98085,-4.805592 -5.863963,-4.805592 -3.883109,0 -1.98085,4.805592 -5.863958,4.805592" />
    <path
       style="display:none;fill:none;stroke:#000000;stroke-width:0.49957;stroke-linecap:round;stroke-linejoin:miter;stroke-miterlimit:4;stroke-dasharray:none;stroke-opacity:1"
       d="m 51.232386,64.941058 c -1.93146,0 -0.985277,-5.000428 -2.916738,-5.000428 -1.931461,0 -0.985276,5.000428 -2.916737,5.000428"
       id="path43-59-7"
       sodipodi:nodetypes="czc"
       inkscape:label="base"
       sodipodi:insensitive="true" />
    <path
       inkscape:label="base5_stretched"
       d="m 104.99717,73.777123 c -3.88311,0 -1.98085,-4.805592 -5.863961,-4.805592 -3.88311,0 -1.98085,4.805592 -5.86397,4.805592 m 0,0 c -3.883107,0 -1.980851,-4.805593 -5.863958,-4.805593 -3.88311,0 -1.980851,4.805593 -5.86396,4.805593 m 0,0 c -3.883107,0 -1.980851,-4.805593 -5.863958,-4.805593 -3.88311,0 -1.980851,4.805593 -5.863959,4.805593 m 0,0 c -3.883109,0 -1.980852,-4.805593 -5.863961,-4.805593 -3.883108,0 -1.980849,4.805593 -5.863958,4.805593 m 0,0 c -3.883108,0 -1.980851,-4.805592 -5.86396,-4.805592 -3.883109,0 -1.98085,4.805592 -5.863958,4.805592"
       style="display:none;fill:none;stroke:#000000;stroke-width:0.694404;stroke-linecap:round;stroke-linejoin:miter;stroke-miterlimit:4;stroke-dasharray:none;stroke-opacity:1"
       id="path43-59-5-5-4"
       sodipodi:insensitive="true" />
    <path
       id="path43-59-5-5-4-8"
       style="display:none;fill:none;stroke:#000000;stroke-width:0.499569;stroke-linecap:round;stroke-linejoin:miter;stroke-miterlimit:4;stroke-dasharray:none;stroke-opacity:1"
       d="m 77.140836,82.272089 c -1.931465,0 -0.985278,-5.000427 -2.916742,-5.000427 -1.931467,0 -0.98528,5.000427 -2.91675,5.000427 m 0,0 c -1.931464,0 -0.985277,-5.000427 -2.916742,-5.000427 -1.931465,0 -0.985278,5.000427 -2.916743,5.000427 m 0,0 c -1.931465,0 -0.985278,-5.000427 -2.916743,-5.000427 -1.931465,0 -0.985278,5.000427 -2.916742,5.000427 m 0,0 c -1.931465,0 -0.985278,-5.000427 -2.916743,-5.000427 -1.931463,0 -0.985276,5.000427 -2.916741,5.000427 m 0,0 c -1.931464,0 -0.985278,-5.000427 -2.916743,-5.000427 -1.931464,0 -0.985277,5.000427 -2.916741,5.000427"
       inkscape:label="base5"
       sodipodi:insensitive="true" />
    <path
       style="display:none;fill:#00ff00;stroke:#00ff00;stroke-width:0.327848px;stroke-linecap:butt;stroke-linejoin:miter;stroke-opacity:1"
       d="M 36.780215,46.035748 H 119.94113"
       id="path1038"
       inkscape:label="helper" />
    <path
       d="m 42.322972,7.577794 c -1.941551,0 -0.990423,-2.402791 -2.931974,-2.402791 -1.941551,0 -0.990423,2.402791 -2.931972,2.402791 m 7.827941,2.25e-4 c -1.94155,0 -0.990422,-2.402791 -2.931973,-2.402791 -1.941551,0 -0.990423,2.402791 -2.931974,2.402791 m 1.935926,0 c -1.941551,0 -0.990423,-2.402791 -2.931974,-2.402791 -1.94155,0 -0.990422,2.402791 -2.931972,2.402791"
       inkscape:label="extension_small"
       style="display:inline;fill:none;stroke:#000000;stroke-width:0.35;stroke-linecap:round;stroke-linejoin:miter;stroke-miterlimit:4;stroke-dasharray:none;stroke-opacity:1"
       id="path43-59-5-5-2"
       sodipodi:nodetypes="csccsccsc" />
    <path
       id="path43-59-5-5"
       style="display:inline;fill:none;stroke:#000000;stroke-width:0.35;stroke-linecap:round;stroke-linejoin:miter;stroke-miterlimit:4;stroke-dasharray:none;stroke-opacity:1"
       inkscape:label="extension_big"
       d="m 31.45876,7.577792 c -1.941551,0 -0.990423,-2.402791 -2.931973,-2.402791 -1.941551,0 -0.990423,2.402791 -2.931976,2.402791 m 0,0 c -1.94155,0 -0.990423,-2.402792 -2.931973,-2.402792 -1.94155,0 -0.990423,2.402792 -2.931973,2.402792 m 0,0 c -1.94155,0 -0.990424,-2.402792 -2.931974,-2.402792 -1.94155,0 -0.990423,2.402792 -2.931972,2.402792 m 0,0 c -1.941551,0 -0.990424,-2.402792 -2.931975,-2.402792 -1.941549,0 -0.990422,2.402792 -2.931972,2.402792 m 0,0 c -1.94155,0 -0.990424,-2.402791 -2.931974,-2.402791 -1.94155,0 -0.990423,2.402791 -2.931972,2.402791 m 31.28373,2.27e-4 c -1.941551,0 -0.990423,-2.402791 -2.931974,-2.402791 -1.94155,0 -0.990428,2.402791 -2.931973,2.402791 m 0,0 c -1.941552,0 -0.990426,-2.402791 -2.931975,-2.402791 -1.941551,0 -0.990423,2.402791 -2.931974,2.402791 m 0,0 c -1.941549,0 -0.990423,-2.402791 -2.931973,-2.402791 -1.94155,0 -0.990423,2.402791 -2.931973,2.402791 m 0,0 c -1.94155,0 -0.990424,-2.402791 -2.931974,-2.402791 -1.94155,0 -0.990422,2.402791 -2.931972,2.402791 m 0,0 c -1.94155,0 -0.990424,-2.402791 -2.931974,-2.402791 -1.94155,0 -0.990423,2.402791 -2.931973,2.402791 m 25.391713,0 c -1.94155,0 -0.990422,-2.402791 -2.931974,-2.402791 -1.94155,0 -0.990423,2.402791 -2.931973,2.402791 m 0,0 c -1.94155,0 -0.990424,-2.402791 -2.931974,-2.402791 -1.94155,0 -0.990423,2.402791 -2.931973,2.402791 m 0,0 c -1.94155,0 -0.990423,-2.402791 -2.931974,-2.402791 -1.94155,0 -0.990422,2.402791 -2.931972,2.402791 m 0,0 c -1.94155,0 -0.990424,-2.402791 -2.931974,-2.402791 -1.941551,0 -0.990423,2.402791 -2.931973,2.402791 m 0,0 c -1.94155,0 -0.990424,-2.402791 -2.931974,-2.402791 -1.94155,0 -0.990423,2.402791 -2.931973,2.402791" />
    <path
       sodipodi:nodetypes="csccsccsccsccsccsccsccsccsccsccsccsccscccccc"
       id="path43-59-5-5-1-8"
       style="display:inline;fill:none;stroke:#000000;stroke-width:0.347201;stroke-linecap:round;stroke-linejoin:miter;stroke-miterlimit:4;stroke-dasharray:none;stroke-opacity:1"
       inkscape:label="right_side"
       d="m 43.334596,0.473813 c 1.94155,0 0.990423,2.402791 2.931973,2.402791 1.941551,0 0.990423,-2.402791 2.931974,-2.402791 m 0,0 c 1.941551,0 0.990423,2.402792 2.931974,2.402792 1.94155,0 0.990422,-2.402792 2.931973,-2.402792 m 0,0 c 1.941546,0 0.990423,2.402792 2.931974,2.402792 1.941546,0 0.990418,-2.402792 2.931973,-2.402792 m 0,0 c 1.941546,0 0.990423,2.402792 2.931974,2.402792 1.941548,0 0.990418,-2.402792 2.931968,-2.402792 m 0,1.59e-4 c 1.94155,0 0.99042,2.402631 2.93197,2.402631 1.94156,0 1.72292,-2.70163 3.83986,-2.70163 M 41.3706,0.473588 c 1.941551,0 0.990423,2.402791 2.931974,2.402791 1.94155,0 0.990427,-2.402791 2.931973,-2.402791 m 0,0 c 1.941551,0 0.990423,2.402792 2.931974,2.402792 1.941551,0 0.990423,-2.402792 2.931973,-2.402792 m 0,0 c 1.941546,0 0.990423,2.402792 2.931969,2.402792 1.941556,0 0.990428,-2.402792 2.931974,-2.402792 m 0,0 c 1.94155,0 0.990428,2.402792 2.931978,2.402792 1.941546,0 0.990418,-2.402792 2.931964,-2.402792 m -19.527758,0 c 1.941551,0 0.990423,2.402791 2.931974,2.402791 1.941551,0 0.990423,-2.402791 2.931974,-2.402791 m 0,0 c 1.941545,0 0.990423,2.402792 2.931973,2.402792 1.941546,0 0.990418,-2.402792 2.931969,-2.402792 m 0,0 c 1.941551,0 0.990423,2.402792 2.931974,2.402792 1.94155,0 0.990427,-2.402792 2.931973,-2.402792 m 0,0 c 1.941551,0 0.990423,2.40288 2.931971,2.40288 1.94155,0 0.99043,-2.40288 2.93198,-2.40288 m 0,0 c 2.26333,0.02339 2.3704,2.70138 4.8078,2.70138 m -8.73583,-2.70138 c 1.94156,0 0.99043,2.402791 2.93198,2.402791 1.96224,-0.0018 3.43584,-3.56942 5.80385,-1.201408" />
    <path
       d="m 38.3346,0.473363 c -1.941551,0 -0.990423,2.402791 -2.931974,2.402791 m 4.895969,-2.402566 c -1.94155,0 -0.990422,2.402791 -2.931973,2.402791 M 36.370574,0.473588 c -1.941551,0 -0.990423,2.402791 -2.931974,2.402791"
       inkscape:label="connector"
       style="display:inline;fill:none;stroke:#000000;stroke-width:0.347201;stroke-linecap:round;stroke-linejoin:miter;stroke-miterlimit:4;stroke-dasharray:none;stroke-opacity:1"
       id="path43-59-5-5-8"
       sodipodi:nodetypes="cccccc" />
    <path
       d="m 30.402616,2.876154 c -1.941551,0 -0.990423,-2.402791 -2.931973,-2.402791 -1.94155,0 -0.990422,2.402791 -2.931973,2.402791 m 0,0 c -1.94155,0 -0.990423,-2.402791 -2.931973,-2.402791 -1.941551,0 -0.990424,2.402791 -2.931974,2.402791 m 0,0 c -1.94155,0 -0.990423,-2.402791 -2.931974,-2.402791 -1.941549,0 -0.990422,2.402791 -2.931973,2.402791 m 0,0 c -1.941549,0 -0.990423,-2.402791 -2.931973,-2.402791 -1.94155,0 -0.990423,2.402791 -2.931973,2.402791 m 0,-1.6e-4 c -1.94155,0 -0.990423,-2.402631 -2.931973,-2.402631 -1.941551,0 -1.722912,2.701631 -3.839857,2.701631 M 32.366612,2.876379 c -1.941551,0 -0.990423,-2.402791 -2.931974,-2.402791 -1.941551,0 -0.990428,2.402791 -2.931972,2.402791 m 0,0 c -1.941551,0 -0.990423,-2.402791 -2.931974,-2.402791 -1.941551,0 -0.990423,2.402791 -2.931973,2.402791 m 0,0 c -1.94155,0 -0.990423,-2.402791 -2.931973,-2.402791 -1.941551,0 -0.990424,2.402791 -2.931973,2.402791 m 0,0 c -1.941551,0 -0.990425,-2.402791 -2.931974,-2.402791 -1.94155,0 -0.990423,2.402791 -2.931973,2.402791 m 19.527764,0 c -1.941549,0 -0.990422,-2.402791 -2.931972,-2.402791 -1.941551,0 -0.990423,2.402791 -2.931973,2.402791 m 0,0 c -1.94155,0 -0.990423,-2.402791 -2.931974,-2.402791 -1.941549,0 -0.990422,2.402791 -2.931973,2.402791 m 0,0 c -1.94155,0 -0.990422,-2.402791 -2.931973,-2.402791 -1.94155,0 -0.990424,2.402791 -2.931973,2.402791 m 0,0 c -1.94155,0 -0.990424,-2.40288 -2.931974,-2.40288 -1.94155,0 -0.990423,2.40288 -2.931973,2.40288 m 0,0 C 2.719475,2.852999 2.612399,0.175 0.175,0.175 m 8.735826,2.701379 c -1.94155,0 -0.990423,-2.402791 -2.931974,-2.402791 C 4.016607,0.475488 2.543012,4.043009 0.175,1.674997"
       inkscape:label="left_side"
       style="display:inline;fill:none;stroke:#000000;stroke-width:0.35;stroke-linecap:round;stroke-linejoin:miter;stroke-miterlimit:4;stroke-dasharray:none;stroke-opacity:1"
       id="path43-59-5-5-1"
       sodipodi:nodetypes="csccsccsccsccsccsccsccsccsccsccsccsccscccccc" />
  </g>
</svg>
